<svg width="32" height="32" viewBox="0 0 32 32" fill="none" xmlns="http://www.w3.org/2000/svg">
<g clip-path="url(#clip0_62_366)">
<path d="M4.14846 1H4.31581L14.1891 10.8518L10.8515 14.0832L10.805 14.1202C9.68009 12.7314 1.32222 4.98144 1.02472 4.36108C0.94105 4.18515 1.0898 4.07405 1.17347 3.95368C1.65691 3.30553 3.38612 1.8611 4.12987 1.00926L4.14846 1Z" fill="white"/>
<path d="M17.1173 9.59248C17.4892 9.38878 17.8797 9.60173 18.1679 9.83321C18.3817 10.0091 21.8215 13.435 22.0912 13.7406C22.3143 13.9998 22.6304 14.435 22.4909 14.7869C22.2771 15.3332 15.3509 21.8979 14.2911 23.1479L14.2539 23.1942L8.89893 17.7591C10.2935 16.4072 16.448 9.96284 17.1173 9.59248Z" fill="url(#paint0_linear_62_366)"/>
<path d="M10.1263 20.4998C10.1263 20.4998 10.1542 20.5276 10.1635 20.5461C10.461 20.8979 11.0374 21.4905 11.3814 21.7776L11.2233 21.9442L9.93107 23.1387H9.76373L8.80615 22.009L10.0519 20.7128L10.1635 20.5368C10.1635 20.5368 10.1356 20.5091 10.1263 20.4905V20.4998Z" fill="#0039A6"/>
<path d="M21.0412 17.972H21.2179C22.473 19.1757 30.6449 26.972 30.9703 27.5738C31.1655 27.9257 30.3753 28.4442 29.6501 29.2034C29.0737 29.8053 28.488 30.3886 27.9116 30.9904H27.7443L17.9082 21.2405V21.0739L21.0412 17.972Z" fill="white"/>
<path d="M19.6741 4.96295L27.2325 12.2592C22.7328 15.1666 16.9037 9.51846 19.6741 4.96295Z" fill="#888888"/>
<path d="M26.061 4.74999C27.7344 4.07407 27.9389 7.46293 25.7077 6.30553H25.6426C25.6612 6.21294 25.0662 5.14813 26.061 4.74999Z" fill="#888888"/>
<path d="M27.2315 12.2499C22.7318 15.1573 16.9027 9.50922 19.6732 4.9537L27.2315 12.2499Z" stroke="black" stroke-width="0.44" stroke-linecap="round" stroke-linejoin="round"/>
<path d="M25.7074 6.30558C27.9387 7.45371 27.7341 4.06486 26.0607 4.75004C25.066 5.15744 25.661 6.22225 25.6424 6.30558C25.5959 6.5278 23.941 7.98149 23.6528 8.3426" stroke="black" stroke-width="0.44" stroke-linecap="round" stroke-linejoin="round"/>
<path d="M29.6487 29.2035C30.3831 28.4442 31.1641 27.9257 30.9688 27.5739C30.6341 26.972 22.4715 19.1758 21.2164 17.9721H21.0398L17.8975 21.0832V21.2498L27.7428 30.9997H27.9102C28.4866 30.3979 29.0723 29.8146 29.6487 29.2127V29.2035Z" stroke="black" stroke-width="0.44" stroke-linecap="round" stroke-linejoin="round"/>
<path d="M27.5669 27.7222L26.1631 29.0463" stroke="black" stroke-width="0.44" stroke-linecap="round" stroke-linejoin="round"/>
<path d="M20.8916 20.8424L29.3238 29.2312" stroke="black" stroke-width="0.44" stroke-linecap="round" stroke-linejoin="round"/>
<path d="M29.2027 26.1481L27.771 27.5092" stroke="black" stroke-width="0.44" stroke-linecap="round" stroke-linejoin="round"/>
<path d="M27.3252 24.2776L24.2944 27.2406" stroke="black" stroke-width="0.44" stroke-linecap="round" stroke-linejoin="round"/>
<path d="M23.8765 24.0461L22.4727 25.3794" stroke="black" stroke-width="0.44" stroke-linecap="round" stroke-linejoin="round"/>
<path d="M23.6435 20.6017L20.6592 23.5739" stroke="black" stroke-width="0.44" stroke-linecap="round" stroke-linejoin="round"/>
<path d="M22.2392 19.2683L19.2549 22.1665" stroke="black" stroke-width="0.44" stroke-linecap="round" stroke-linejoin="round"/>
<path d="M25.5118 22.472L24.0801 23.8331" stroke="black" stroke-width="0.44" stroke-linecap="round" stroke-linejoin="round"/>
<path d="M10.0514 20.7221L8.80566 22.0184L9.76324 23.1387H9.93988L11.2228 21.9535" stroke="black" stroke-width="0.44" stroke-linecap="round" stroke-linejoin="round"/>
<path d="M10.0975 19.3702C9.47459 20.1295 9.64193 19.935 10.1254 20.4999C10.1347 20.5184 10.1533 20.5276 10.1626 20.5462C10.4601 20.898 11.0365 21.4906 11.3804 21.7776C11.994 22.2869 11.9197 22.435 12.5054 21.8332" stroke="black" stroke-width="0.44" stroke-linecap="round" stroke-linejoin="round"/>
<path d="M14.2441 23.1943L14.2813 23.148C15.3412 21.898 22.2673 15.3332 22.4812 14.7869C22.6206 14.4258 22.3045 13.9999 22.0814 13.7407C21.8118 13.4351 18.3719 10.0092 18.1581 9.83329C17.8699 9.60181 17.4794 9.37959 17.1076 9.59255C16.4289 9.97218 10.2744 16.4073 8.88916 17.7591L14.2441 23.1943Z" stroke="black" stroke-width="0.44" stroke-linecap="round" stroke-linejoin="round"/>
<path d="M19 19H20" stroke="black" stroke-width="0.44" stroke-linecap="round" stroke-linejoin="round"/>
<path d="M12 13H13" stroke="black" stroke-width="0.44" stroke-linecap="round" stroke-linejoin="round"/>
<path d="M20 11L21 12" stroke="black" stroke-width="0.44" stroke-linecap="round" stroke-linejoin="round"/>
<path d="M10.804 14.1206L10.8505 14.0835L14.1881 10.8521L4.3148 1.0096H4.14746C3.40371 1.86144 1.67449 3.31513 1.19106 3.95401C1.09809 4.07438 0.958636 4.18549 1.04231 4.36142C1.33981 4.98178 9.69768 12.7317 10.8226 14.1206H10.804Z" stroke="black" stroke-width="0.44" stroke-linecap="round" stroke-linejoin="round"/>
<path d="M12.8031 9.81482L9.82812 12.7222" stroke="black" stroke-width="0.44" stroke-linecap="round" stroke-linejoin="round"/>
<path d="M11.3998 8.41664L8.4248 11.3796" stroke="black" stroke-width="0.44" stroke-linecap="round" stroke-linejoin="round"/>
<path d="M7.94972 8.18513L6.5459 9.5092" stroke="black" stroke-width="0.44" stroke-linecap="round" stroke-linejoin="round"/>
<path d="M2.74365 2.75929L11.1666 11.1481" stroke="black" stroke-width="0.44" stroke-linecap="round" stroke-linejoin="round"/>
<path d="M9.5865 6.61108L8.15479 7.97218" stroke="black" stroke-width="0.44" stroke-linecap="round" stroke-linejoin="round"/>
<path d="M6.07226 6.31479L4.67773 7.70366" stroke="black" stroke-width="0.44" stroke-linecap="round" stroke-linejoin="round"/>
<path d="M7.70808 4.74072L6.27637 6.10182" stroke="black" stroke-width="0.44" stroke-linecap="round" stroke-linejoin="round"/>
<path d="M4.25929 4.50926L2.85547 5.83332" stroke="black" stroke-width="0.44" stroke-linecap="round" stroke-linejoin="round"/>
<path d="M5.89558 2.87038L4.46387 4.29629" stroke="black" stroke-width="0.44" stroke-linecap="round" stroke-linejoin="round"/>
<mask id="path-34-outside-1_62_366" maskUnits="userSpaceOnUse" x="12" y="12" width="9" height="9" fill="black">
<rect fill="white" x="12" y="12" width="9" height="9"/>
<path d="M16.277 19.112C14.589 19.112 13.365 17.848 13.365 16.2C13.365 14.552 14.589 13.288 16.277 13.288C17.293 13.288 18.189 13.792 18.677 14.584L17.573 15.224C17.325 14.792 16.845 14.536 16.277 14.536C15.285 14.536 14.645 15.2 14.645 16.2C14.645 17.2 15.285 17.864 16.277 17.864C16.845 17.864 17.333 17.608 17.573 17.176L18.677 17.816C18.197 18.608 17.301 19.112 16.277 19.112Z"/>
</mask>
<path d="M16.277 19.112C14.589 19.112 13.365 17.848 13.365 16.2C13.365 14.552 14.589 13.288 16.277 13.288C17.293 13.288 18.189 13.792 18.677 14.584L17.573 15.224C17.325 14.792 16.845 14.536 16.277 14.536C15.285 14.536 14.645 15.2 14.645 16.2C14.645 17.2 15.285 17.864 16.277 17.864C16.845 17.864 17.333 17.608 17.573 17.176L18.677 17.816C18.197 18.608 17.301 19.112 16.277 19.112Z" fill="white"/>
<path d="M18.677 14.584L19.1785 15.4491L20.0672 14.934L19.5284 14.0594L18.677 14.584ZM17.573 15.224L16.7057 15.7219L17.2057 16.5928L18.0745 16.0891L17.573 15.224ZM17.573 17.176L18.0745 16.3109L17.1934 15.8001L16.6988 16.6904L17.573 17.176ZM18.677 17.816L19.5322 18.3343L20.0607 17.4623L19.1785 16.9509L18.677 17.816ZM16.277 18.112C15.1503 18.112 14.365 17.3048 14.365 16.2H12.365C12.365 18.3912 14.0277 20.112 16.277 20.112V18.112ZM14.365 16.2C14.365 15.0952 15.1503 14.288 16.277 14.288V12.288C14.0277 12.288 12.365 14.0088 12.365 16.2H14.365ZM16.277 14.288C16.9605 14.288 17.5272 14.6242 17.8256 15.1086L19.5284 14.0594C18.8508 12.9598 17.6255 12.288 16.277 12.288V14.288ZM18.1755 13.7189L17.0715 14.3589L18.0745 16.0891L19.1785 15.4491L18.1755 13.7189ZM18.4403 14.7261C17.987 13.9366 17.1455 13.536 16.277 13.536V15.536C16.5445 15.536 16.663 15.6474 16.7057 15.7219L18.4403 14.7261ZM16.277 13.536C15.5513 13.536 14.8716 13.784 14.3733 14.2946C13.8777 14.8024 13.645 15.4843 13.645 16.2H15.645C15.645 15.9157 15.7323 15.7656 15.8047 15.6914C15.8744 15.62 16.0107 15.536 16.277 15.536V13.536ZM13.645 16.2C13.645 16.9157 13.8777 17.5976 14.3733 18.1054C14.8716 18.616 15.5513 18.864 16.277 18.864V16.864C16.0107 16.864 15.8744 16.78 15.8047 16.7086C15.7323 16.6344 15.645 16.4843 15.645 16.2H13.645ZM16.277 18.864C17.1357 18.864 17.9982 18.4698 18.4472 17.6616L16.6988 16.6904C16.6678 16.7462 16.5543 16.864 16.277 16.864V18.864ZM17.0715 18.0411L18.1755 18.6811L19.1785 16.9509L18.0745 16.3109L17.0715 18.0411ZM17.8218 17.2977C17.5333 17.7737 16.9716 18.112 16.277 18.112V20.112C17.6304 20.112 18.8607 19.4423 19.5322 18.3343L17.8218 17.2977Z" fill="black" mask="url(#path-34-outside-1_62_366)"/>
</g>
<defs>
<linearGradient id="paint0_linear_62_366" x1="3.58541e-07" y1="-3.08761e-05" x2="32" y2="32" gradientUnits="userSpaceOnUse">
<stop stop-color="#0039A6"/>
<stop offset="1" stop-color="#001640"/>
</linearGradient>
<clipPath id="clip0_62_366">
<rect width="32" height="32" fill="white"/>
</clipPath>
</defs>
</svg>
