<svg width="32" height="32" viewBox="0 0 32 32" fill="none" xmlns="http://www.w3.org/2000/svg">
<g clip-path="url(#clip0_62_411)">
<path d="M12.6206 12.2393L12.3214 12.3505L12.3043 12.4189L12.2273 12.6753L12.1846 12.7181C11.1843 13.5559 10.7653 14.7443 9.40597 13.6072C8.94429 13.2225 1.49763 5.78441 1.17275 5.29708C0.899166 4.8867 0.967562 4.60457 1.25825 4.22839C1.44634 3.98045 4.12234 1.33009 4.32753 1.1933C4.66952 0.953913 4.98585 0.919714 5.35348 1.15055C5.86645 1.47544 13.6209 9.26407 13.9372 9.77705C14.5955 10.8457 13.4072 11.239 12.6633 12.188L12.6206 12.2393Z" fill="white"/>
<path d="M19.4348 6.50258L19.5203 6.55388C20.418 7.41738 21.3328 8.26379 22.2134 9.14439L22.3331 9.03324C22.8033 8.80241 23.4445 8.31508 23.8549 8.13554L23.9148 8.19539C23.7267 8.61432 23.2223 9.23843 22.9914 9.70866L22.8717 9.8198C23.1966 10.1532 25.4024 12.2992 25.4451 12.4787C25.4451 12.5044 25.4708 12.5386 25.4964 12.5642C21.4525 14.77 17.229 10.5551 19.4434 6.51113L19.4348 6.50258Z" fill="#888888"/>
<path d="M24.2822 6.8702C25.1028 6.47699 25.6328 7.78485 24.7694 8.07548C24.5643 8.14387 24.077 8.02419 24.0428 8.0071C23.9916 7.97291 23.6838 7.16084 24.2736 6.87875L24.2822 6.8702Z" fill="#888888"/>
<path d="M12.6205 12.2393L12.6632 12.2735L13.5864 13.1539L13.7403 13.2907C13.595 13.436 13.4497 13.5814 13.3044 13.7267L13.1932 13.6241L12.2615 12.7095L12.2188 12.6667L12.2957 12.4103L12.3128 12.3419L12.612 12.2308L12.6205 12.2393Z" fill="white"/>
<path d="M18.7765 18.2753C18.7765 18.2753 18.7508 18.3009 18.7423 18.3095C18.614 18.4463 18.4601 18.5574 18.3233 18.6857C17.6907 19.3183 14.8864 22.1739 14.6128 22.3363C13.9887 22.6954 13.262 21.6951 12.8516 21.3275L12.7319 21.4643C12.4412 21.6353 11.9112 22.5244 11.535 22.2765C11.1845 22.0371 10.1414 20.806 9.57715 20.3015L10.5347 19.2927L10.6544 19.1815C10.5945 19.1131 10.5176 19.0533 10.4578 18.9935C10.1072 18.5916 9.35486 18.053 9.65409 17.4289C9.77379 17.1724 12.7234 14.2912 13.2877 13.7355C13.433 13.5901 13.5698 13.4362 13.7237 13.2995C14.3649 12.6668 16.3655 10.5892 16.6562 10.4012C16.9982 10.1703 17.3658 10.2558 17.6821 10.4867C17.8959 10.6491 21.3328 14.0775 21.5038 14.3083C21.7688 14.6588 21.8885 15.0094 21.6149 15.3855C21.4268 15.642 19.3493 17.7025 18.7765 18.2838V18.2753Z" fill="url(#paint0_linear_62_411)"/>
<path d="M19.3833 19.686L19.4517 19.6689L19.5885 19.6261L19.6313 19.5834C19.6911 19.5235 19.7424 19.4722 19.8023 19.4124C20.9308 18.318 21.3241 17.4887 22.3842 18.1727C22.8886 18.4976 30.5234 26.1494 30.8739 26.6367C31.0791 26.936 31.139 27.2865 30.9252 27.6028C30.7713 27.8337 27.8816 30.7063 27.6593 30.8431C27.1121 31.1851 26.83 30.9115 26.4196 30.561C25.9152 30.1335 18.554 22.798 18.2206 22.3192C17.3485 21.0624 18.9131 20.6692 19.3919 19.6774L19.3833 19.686Z" fill="white"/>
<path d="M19.7938 19.4122C19.7339 19.4635 19.6826 19.5233 19.6228 19.5831L19.5801 19.6259L19.4433 19.6686L19.3749 19.6857L19.3322 19.6515C19.0415 19.3865 18.7423 19.1216 18.4432 18.8566L18.3149 18.7027C18.4432 18.5745 18.597 18.4548 18.7338 18.3266L18.8364 18.4377L19.6912 19.2925L19.7852 19.4293L19.7938 19.4122Z" fill="white"/>
<path d="M23.7178 5.96392C25.2308 5.75877 26.3506 6.79309 26.0087 8.32319" stroke="black" stroke-width="0.5" stroke-linecap="round" stroke-linejoin="round"/>
<path d="M19.4343 6.50258C17.2285 10.5465 21.4434 14.77 25.4874 12.5557" stroke="black" stroke-width="0.5" stroke-linecap="round" stroke-linejoin="round"/>
<path d="M23.4956 27.3973L25.3847 25.4569" stroke="black" stroke-width="0.5" stroke-linecap="round" stroke-linejoin="round"/>
<path d="M19.5885 19.6261C19.5885 19.6261 19.6142 19.6005 19.6313 19.5834C19.6911 19.5235 19.7424 19.4722 19.8023 19.4124C20.9308 18.318 21.3241 17.4887 22.3842 18.1727C22.8886 18.4976 30.5234 26.1494 30.8739 26.6368C31.0791 26.936 31.139 27.2865 30.9252 27.6029C30.7713 27.8337 27.8816 30.7063 27.6593 30.8431C27.1121 31.1851 26.83 30.9115 26.4196 30.561C25.9152 30.1335 18.554 22.798 18.2206 22.3192C17.3485 21.0625 18.9131 20.6692 19.3919 19.6774C19.4774 19.6774 19.5543 19.6603 19.5971 19.6176L19.5885 19.6261Z" stroke="black" stroke-width="0.5" stroke-linecap="round" stroke-linejoin="round"/>
<path d="M29.437 25.3971L25.4707 29.3548" stroke="black" stroke-width="0.5" stroke-linecap="round" stroke-linejoin="round"/>
<path d="M23.666 23.6188L29.1377 29.1589" stroke="black" stroke-width="0.5" stroke-linecap="round" stroke-linejoin="round"/>
<path d="M25.5549 21.5669L21.5972 25.5332" stroke="black" stroke-width="0.5" stroke-linecap="round" stroke-linejoin="round"/>
<path d="M27.4023 23.4392L25.5815 25.3198" stroke="black" stroke-width="0.5" stroke-linecap="round" stroke-linejoin="round"/>
<path d="M23.5803 19.6176L19.6567 23.5411" stroke="black" stroke-width="0.5" stroke-linecap="round" stroke-linejoin="round"/>
<path d="M19.5889 19.6261L23.4697 23.43" stroke="black" stroke-width="0.5" stroke-linecap="round" stroke-linejoin="round"/>
<path d="M19.5885 19.6261L19.4517 19.6689L19.3833 19.686" stroke="black" stroke-width="0.5" stroke-linecap="round" stroke-linejoin="round"/>
<path d="M10.5511 19.2927L9.59375 20.3014C10.1579 20.8057 11.1922 22.0366 11.5513 22.276C11.9274 22.5238 12.4488 21.6349 12.748 21.4639" stroke="black" stroke-width="0.5" stroke-linecap="round" stroke-linejoin="round"/>
<path d="M18.4517 18.8481C18.7423 19.1131 19.0415 19.3781 19.3407 19.6431C19.3578 19.6516 19.3663 19.6687 19.3834 19.6773" stroke="black" stroke-width="0.5" stroke-linecap="round" stroke-linejoin="round"/>
<path d="M10.4657 18.9935C10.1152 18.5916 9.36285 18.053 9.66208 17.4289C9.78178 17.1724 12.7314 14.2912 13.2956 13.7355C13.441 13.5901 13.5778 13.4362 13.7317 13.2995C14.3729 12.6668 16.3735 10.5892 16.6642 10.4012C17.0061 10.1703 17.3738 10.2558 17.6901 10.4867C17.9038 10.6491 21.3408 14.0775 21.5118 14.3083C21.7768 14.6588 21.8965 15.0094 21.6229 15.3855C21.4348 15.642 19.3573 17.7025 18.7845 18.2838C18.7759 18.2924 18.7588 18.3095 18.7503 18.318C18.622 18.4548 18.4681 18.566 18.3313 18.6942C17.6987 19.3269 14.8944 22.1824 14.6208 22.3449C13.9967 22.704 13.27 21.7037 12.8596 21.336C12.2611 20.7974 11.1925 19.7629 10.6624 19.1901C10.6025 19.1217 10.5256 19.0618 10.4657 19.002V18.9935Z" stroke="black" stroke-width="0.5" stroke-linecap="round" stroke-linejoin="round"/>
<path d="M12.21 12.6668L12.2527 12.7095L13.1844 13.6242" stroke="black" stroke-width="0.5" stroke-linecap="round" stroke-linejoin="round"/>
<path d="M12.6206 12.2393L12.6633 12.188C13.4157 11.2476 14.5955 10.8457 13.9372 9.77705C13.6209 9.26407 5.86645 1.47544 5.35348 1.15055C4.98585 0.919714 4.67807 0.953913 4.32753 1.1933C4.12234 1.33864 1.44634 3.989 1.25825 4.22839C0.967562 4.60457 0.899166 4.8867 1.17275 5.29708C1.49763 5.78441 8.94429 13.214 9.38887 13.5901C10.7482 14.7272 11.1672 13.5388 12.1675 12.701L12.2102 12.6582" stroke="black" stroke-width="0.5" stroke-linecap="round" stroke-linejoin="round"/>
<path d="M12.3125 12.3505L12.2954 12.4103L12.21 12.6667" stroke="black" stroke-width="0.5" stroke-linecap="round" stroke-linejoin="round"/>
<path d="M19.5205 6.55386C20.4182 7.41737 21.333 8.26377 22.2136 9.14438C22.4359 9.36666 22.6496 9.5975 22.8719 9.81979C23.1968 10.1532 25.4026 12.2992 25.4453 12.4787" stroke="black" stroke-width="0.5" stroke-linecap="round" stroke-linejoin="round"/>
<path d="M12.4741 8.48608L8.50781 12.3926" stroke="black" stroke-width="0.5" stroke-linecap="round" stroke-linejoin="round"/>
<path d="M8.58545 8.5459L12.3124 12.3498" stroke="black" stroke-width="0.5" stroke-linecap="round" stroke-linejoin="round"/>
<path d="M12.6202 12.2393L12.3125 12.3504" stroke="black" stroke-width="0.5" stroke-linecap="round" stroke-linejoin="round"/>
<path d="M12.6201 12.2393L12.6543 12.282L13.5775 13.1539" stroke="black" stroke-width="0.5" stroke-linecap="round" stroke-linejoin="round"/>
<path d="M22.333 9.03305C22.8032 8.80225 23.4443 8.31501 23.8546 8.1355C23.8888 8.1184 23.9144 8.09276 23.9486 8.09276C23.9486 8.1355 23.9229 8.16114 23.9059 8.18679C23.7178 8.60564 23.2135 9.22965 22.9827 9.6998" stroke="black" stroke-width="0.5" stroke-linecap="round" stroke-linejoin="round"/>
<path d="M24.0424 7.9985C23.9911 7.96431 23.6833 7.15225 24.2732 6.87016C25.0938 6.47695 25.6237 7.7848 24.7604 8.07544C24.5552 8.14382 24.068 8.02415 24.0338 8.00705L24.0424 7.9985Z" stroke="black" stroke-width="0.5" stroke-linecap="round" stroke-linejoin="round"/>
<path d="M8.38807 8.34897L6.7041 6.65645" stroke="black" stroke-width="0.5" stroke-linecap="round" stroke-linejoin="round"/>
<path d="M8.59301 4.60457L4.63525 8.56232" stroke="black" stroke-width="0.5" stroke-linecap="round" stroke-linejoin="round"/>
<path d="M10.4915 6.47693L6.5166 10.4518" stroke="black" stroke-width="0.5" stroke-linecap="round" stroke-linejoin="round"/>
<path d="M6.6179 2.59541L2.69434 6.57027" stroke="black" stroke-width="0.5" stroke-linecap="round" stroke-linejoin="round"/>
<path d="M2.87402 2.82629L6.50695 6.46777" stroke="black" stroke-width="0.5" stroke-linecap="round" stroke-linejoin="round"/>
<path d="M20.0587 11.9401L19.7852 12.2051" stroke="black" stroke-width="0.5" stroke-linecap="round" stroke-linejoin="round"/>
<path d="M18.853 18.4292L19.6993 19.284" stroke="black" stroke-width="0.5" stroke-linecap="round" stroke-linejoin="round"/>
<mask id="path-39-outside-1_62_411" maskUnits="userSpaceOnUse" x="12" y="12" width="7" height="8" fill="black">
<rect fill="white" x="12" y="12" width="7" height="8"/>
<path d="M16.6 13.4H17.88V19H16.92L14.76 15.96V19H13.48V13.4H14.44L16.6 16.44V13.4Z"/>
</mask>
<path d="M16.6 13.4H17.88V19H16.92L14.76 15.96V19H13.48V13.4H14.44L16.6 16.44V13.4Z" fill="white"/>
<path d="M16.6 13.4V12.4H15.6V13.4H16.6ZM17.88 13.4H18.88V12.4H17.88V13.4ZM17.88 19V20H18.88V19H17.88ZM16.92 19L16.1048 19.5792L16.4038 20H16.92V19ZM14.76 15.96L15.5752 15.3808L13.76 12.8261V15.96H14.76ZM14.76 19V20H15.76V19H14.76ZM13.48 19H12.48V20H13.48V19ZM13.48 13.4V12.4H12.48V13.4H13.48ZM14.44 13.4L15.2552 12.8208L14.9562 12.4H14.44V13.4ZM16.6 16.44L15.7848 17.0192L17.6 19.5739V16.44H16.6ZM16.6 14.4H17.88V12.4H16.6V14.4ZM16.88 13.4V19H18.88V13.4H16.88ZM17.88 18H16.92V20H17.88V18ZM17.7352 18.4208L15.5752 15.3808L13.9448 16.5392L16.1048 19.5792L17.7352 18.4208ZM13.76 15.96V19H15.76V15.96H13.76ZM14.76 18H13.48V20H14.76V18ZM14.48 19V13.4H12.48V19H14.48ZM13.48 14.4H14.44V12.4H13.48V14.4ZM13.6248 13.9792L15.7848 17.0192L17.4152 15.8608L15.2552 12.8208L13.6248 13.9792ZM17.6 16.44V13.4H15.6V16.44H17.6Z" fill="black" mask="url(#path-39-outside-1_62_411)"/>
</g>
<defs>
<linearGradient id="paint0_linear_62_411" x1="1.82095e-07" y1="1.50767e-05" x2="32" y2="32" gradientUnits="userSpaceOnUse">
<stop stop-color="#0039A6"/>
<stop offset="1" stop-color="#001640"/>
</linearGradient>
<clipPath id="clip0_62_411">
<rect width="32" height="32" fill="white"/>
</clipPath>
</defs>
</svg>
