<svg width="32" height="32" viewBox="0 0 32 32" fill="none" xmlns="http://www.w3.org/2000/svg">
<g clip-path="url(#clip0_62_459)">
<path d="M25.0636 20.791L27.3221 23.0276C27.3617 23.1866 26.1532 24.3596 25.9551 24.5782C25.9452 24.5981 25.9254 24.6081 25.9056 24.6279C24.9943 25.5921 24.0136 26.5265 23.0429 27.441L20.7646 25.1945L25.0537 20.801L25.0636 20.791Z" fill="white"/>
<path d="M27.8669 23.6438H28.0452L30.2046 25.8009C29.6103 26.5066 28.9268 27.1328 28.2829 27.7889C27.4806 28.604 26.6684 29.429 25.8165 30.1944L23.5977 27.9678L27.857 23.6339L27.8669 23.6438Z" fill="white"/>
<path d="M22.2111 18.0972C22.5379 17.9481 24.2615 19.8566 24.5388 20.2542L20.2696 24.5683L20.2201 24.608C20.0121 24.1011 18.031 22.5604 18.1201 22.2423C18.7342 21.5763 21.8941 18.2364 22.2111 18.0872V18.0972Z" fill="white"/>
<path d="M10.3746 19.5684C10.6222 19.7473 12.3854 21.3775 12.5142 21.5763C13.5146 23.0872 13.3165 25.5524 12.1972 26.9639L12.1576 26.9142C11.1274 25.8705 10.1467 24.787 9.10667 23.7532L9.03733 23.8725C8.20527 24.3795 7.42274 25.0554 6.59068 25.5524L6.53125 25.4828C7.02652 24.6578 7.69019 23.9023 8.20527 23.0872L8.33404 22.958C7.98735 22.6101 5.13458 20.0157 5.22373 19.8169C6.66002 18.6241 8.86894 18.4948 10.3944 19.5684H10.3746Z" fill="#888888"/>
<path d="M18.5265 10.1053C18.7147 10.2345 21.6269 13.0973 21.7656 13.2762C22.7759 14.5784 21.2406 15.3935 18.7741 17.8984C18.5859 18.0873 18.4076 18.2761 18.2095 18.465C17.6152 19.0515 15.4558 21.288 15.1685 21.4471C14.3959 21.8646 13.9303 21.0892 13.4549 20.6518C13.4351 20.6419 13.4252 20.622 13.4053 20.6021C12.8308 20.0753 11.87 19.1211 11.345 18.5346C11.2856 18.4749 11.2162 18.4153 11.1667 18.3557C11.1469 18.3358 11.1271 18.3159 11.1073 18.296C10.8695 18.0177 10.1464 17.5107 10.612 16.7354C10.9785 16.129 12.8903 14.4591 13.5737 13.7633C13.7619 13.5645 13.96 13.3756 14.1482 13.1867C15.9709 11.3876 17.2982 9.22059 18.5166 10.0953L18.5265 10.1053Z" fill="url(#paint0_linear_62_459)"/>
<path d="M21.7655 13.2861C21.6268 13.1072 18.7146 10.2444 18.5264 10.1152L18.6353 9.9661C19.6754 8.81303 19.5268 9.07147 20.656 10.1947C22.6768 12.1927 23.1126 12.3518 21.8744 13.2265L21.7655 13.2961V13.2861Z" fill="white"/>
<path d="M13.4056 20.622C13.4056 20.622 13.4353 20.6518 13.4551 20.6717L13.3164 20.8009L12.6231 21.4968L12.5141 21.5862C12.3853 21.3974 10.6221 19.7572 10.3745 19.5783L10.5231 19.4789L11.2462 18.6638L11.3452 18.5644C11.8702 19.1409 12.8212 20.1051 13.4056 20.632V20.622Z" fill="white"/>
<path d="M18.21 18.4749C18.3982 18.2861 18.5864 18.0972 18.7746 17.9084L18.8835 18.0376L19.9929 19.1509L20.092 19.2503C19.9038 19.4392 19.7156 19.628 19.5274 19.8169L19.4283 19.7175L18.3189 18.6042L18.21 18.4749Z" fill="white"/>
<path d="M14.1485 13.1967C13.9504 13.3855 13.7622 13.5844 13.574 13.7732L13.4452 13.644L12.3952 12.5903L12.2764 12.4412C12.4646 12.2524 12.6528 12.0734 12.841 11.8746L12.9598 12.0237L14.0098 13.0774L14.1584 13.1967H14.1485Z" fill="white"/>
<path d="M5.99616 1.89462C6.27352 1.77534 8.47253 3.82303 8.21499 4.23058C8.07631 4.4592 6.91737 5.34388 6.432 6.04964L4.0745 8.28619L1.87549 6.0397C2.51934 5.38364 5.68909 2.02385 5.99616 1.89462Z" fill="white"/>
<path d="M8.76974 4.3598C9.09662 4.30016 11.0084 6.50689 11.4244 6.83492L6.83818 11.4372C6.5113 11.0098 4.30238 9.10129 4.37171 8.77326C4.44105 8.46511 8.324 4.98603 8.76974 4.3598Z" fill="black"/>
<path d="M8.76998 4.85681C9.08695 4.78722 10.5431 6.54664 10.9195 6.82497L9.07704 8.7335L6.98699 6.76533C6.96718 6.63611 8.6412 4.88663 8.76007 4.85681H8.76998Z" fill="white"/>
<path d="M6.59034 7.05361C6.90731 6.98403 8.37332 8.77327 8.79926 9.02178L6.83797 10.9303C6.62996 10.6321 4.90641 9.09136 4.87669 8.96214C4.83707 8.77327 6.46156 7.08343 6.59034 7.05361Z" fill="white"/>
<path d="M11.7015 7.17285L14.1679 9.64797L9.64113 14.2503L7.18457 11.646L11.7015 7.17285Z" fill="black"/>
<path d="M11.6422 7.67984L13.7322 9.648L11.8304 11.5565C9.25496 9.04165 9.39364 10.0556 11.6422 7.67984Z" fill="white"/>
<path d="M9.46267 9.86667L11.5428 11.7752L9.64097 13.7434L7.67969 11.7752L9.46267 9.86667Z" fill="white"/>
<path d="M28.2935 27.7989C28.9374 27.1428 29.6209 26.5166 30.2152 25.8108L28.0558 23.6538H27.8775L23.6182 27.9877L25.837 30.2143C26.6889 29.4489 27.5011 28.6239 28.3035 27.8088L28.2935 27.7989Z" stroke="black" stroke-width="0.31" stroke-linecap="round" stroke-linejoin="round"/>
<path d="M25.8569 25.8605L27.9272 27.9281" stroke="black" stroke-width="0.31" stroke-linecap="round" stroke-linejoin="round"/>
<path d="M25.9064 24.618C25.9064 24.618 25.9361 24.5882 25.956 24.5683C26.1541 24.3596 27.3625 23.1767 27.3229 23.0176L25.0645 20.7811L20.7754 25.1746L23.0536 27.4211C24.0244 26.5066 24.9951 25.5723 25.9163 24.6081L25.9064 24.618Z" stroke="black" stroke-width="0.31" stroke-linecap="round" stroke-linejoin="round"/>
<path d="M23.0537 23.0474L25.1834 25.115" stroke="black" stroke-width="0.31" stroke-linecap="round" stroke-linejoin="round"/>
<path d="M20.221 24.618C20.013 24.111 18.0319 22.5703 18.1211 22.2522C18.7352 21.5862 21.8951 18.2463 22.212 18.0972C22.5389 17.9481 24.2625 19.8566 24.5398 20.2542L20.2706 24.5683L20.221 24.6081V24.618Z" stroke="black" stroke-width="0.31" stroke-linecap="round" stroke-linejoin="round"/>
<path d="M20.2505 20.2244L22.3108 22.3019" stroke="black" stroke-width="0.31" stroke-linecap="round" stroke-linejoin="round"/>
<path d="M6.43249 6.04963C6.91786 5.35382 8.0768 4.4592 8.21548 4.23057C8.46311 3.81308 6.274 1.77533 5.99665 1.89462C5.69949 2.02384 2.51983 5.39358 1.87598 6.03969L4.07499 8.28618L6.43249 6.04963Z" stroke="black" stroke-width="0.31" stroke-linecap="round" stroke-linejoin="round"/>
<path d="M4.03516 4.02182L6.14502 6.13909" stroke="black" stroke-width="0.31" stroke-linecap="round" stroke-linejoin="round"/>
<path d="M8.18554 23.0872C7.67045 23.9023 7.00679 24.6577 6.51151 25.4828C6.4818 25.5325 6.43227 25.5822 6.42236 25.6418C6.44217 25.6617 6.53132 25.5822 6.58085 25.5524C7.41291 25.0653 8.19544 24.3794 9.0275 23.8725" stroke="black" stroke-width="0.31" stroke-linecap="round" stroke-linejoin="round"/>
<path d="M12.1974 26.9639C13.3267 25.5524 13.5248 23.0773 12.5144 21.5763C12.3857 21.3874 10.6225 19.7473 10.3748 19.5684C8.8494 18.4948 6.63057 18.624 5.20419 19.8169C5.11504 20.0157 7.97772 22.6101 8.3145 22.958C8.57205 23.2264 8.83949 23.4848 9.09704 23.7532C10.1272 24.787 11.1178 25.8804 12.1479 26.9142L12.1875 26.9639H12.1974Z" stroke="black" stroke-width="0.31" stroke-linecap="round" stroke-linejoin="round"/>
<path d="M13.3159 20.791L12.6226 21.4868" stroke="black" stroke-width="0.31" stroke-linecap="round" stroke-linejoin="round"/>
<path d="M11.177 18.3755C11.177 18.3755 11.1373 18.3358 11.1175 18.3159C10.8798 18.0376 10.1567 17.5306 10.6223 16.7553C10.9888 16.1489 12.9005 14.479 13.584 13.7831C13.7722 13.5843 13.9703 13.3955 14.1585 13.2066C15.9811 11.4074 17.3084 9.24045 18.5268 10.1152C18.715 10.2444 21.6272 13.1072 21.7659 13.2861C22.7763 14.5883 21.2409 15.4034 18.7745 17.9083C18.5862 18.0972 18.4079 18.2861 18.2098 18.4749C17.6155 19.0614 15.4561 21.2979 15.1689 21.457C14.3962 21.8745 13.9307 21.0991 13.4552 20.6618C13.4354 20.6518 13.4255 20.632 13.4057 20.6121C12.8312 20.0852 11.8703 19.131 11.3453 18.5445C11.2859 18.4849 11.2166 18.4252 11.1671 18.3656L11.177 18.3755Z" stroke="black" stroke-width="0.31" stroke-linecap="round" stroke-linejoin="round"/>
<path d="M18.3188 18.6041L19.4283 19.7174" stroke="black" stroke-width="0.31" stroke-linecap="round" stroke-linejoin="round"/>
<path d="M19.3391 20.0057C18.616 20.7512 16.9024 21.9441 17.3283 22.6299C18.6358 23.7433 25.114 30.6617 25.6291 30.94C25.8668 31.0692 26.1145 30.9698 26.3126 30.8306C26.5701 30.6418 30.4431 26.775 30.7403 26.4172C31.1464 25.9301 31.0375 25.7313 30.6809 25.2641C29.0663 23.8228 23.6084 17.9779 22.8258 17.4213C21.9344 16.7851 21.3301 18.0475 20.082 19.2602C19.8938 19.4491 19.7056 19.6379 19.5174 19.8268C19.458 19.8864 19.3886 19.956 19.3292 20.0157L19.3391 20.0057Z" stroke="black" stroke-width="0.31" stroke-linecap="round" stroke-linejoin="round"/>
<path d="M11.2563 18.6539L10.5332 19.469" stroke="black" stroke-width="0.31" stroke-linecap="round" stroke-linejoin="round"/>
<path d="M18.8735 18.0375L19.9929 19.1508" stroke="black" stroke-width="0.31" stroke-linecap="round" stroke-linejoin="round"/>
<path d="M21.8748 13.2066C23.1031 12.3319 22.6772 12.1828 20.6565 10.1748C19.5272 9.06152 19.6758 8.79314 18.6357 9.9462" stroke="black" stroke-width="0.31" stroke-linecap="round" stroke-linejoin="round"/>
<path d="M12.395 12.5903L13.445 13.644" stroke="black" stroke-width="0.31" stroke-linecap="round" stroke-linejoin="round"/>
<path d="M12.96 12.0337L14 13.0873" stroke="black" stroke-width="0.31" stroke-linecap="round" stroke-linejoin="round"/>
<path d="M12.9798 11.7454C13.8613 10.6321 15.1391 10.1052 14.634 9.31003C14.3269 8.8329 7.12562 1.64611 6.67987 1.29821C6.17469 0.900598 6.0063 0.900598 5.49122 1.29821C5.20396 1.51689 1.44979 5.29418 1.25168 5.55262C1.04366 5.82101 0.895079 6.09934 1.09319 6.42736C1.48941 7.08342 8.07654 13.2265 9.48312 14.7573C9.99821 15.0157 11.276 13.4253 12.2765 12.4412C12.4647 12.2523 12.6529 12.0734 12.8411 11.8746C12.8906 11.8249 12.9401 11.7851 12.9798 11.7354V11.7454Z" stroke="black" stroke-width="0.31" stroke-linecap="round" stroke-linejoin="round"/>
<mask id="path-37-outside-1_62_459" maskUnits="userSpaceOnUse" x="12" y="12" width="8" height="9" fill="black">
<rect fill="white" x="12" y="12" width="8" height="9"/>
<path d="M16.44 19.112C15.264 19.112 14.512 18.552 14.2 17.728L15.304 17.088C15.504 17.552 15.848 17.864 16.48 17.864C17.088 17.864 17.24 17.624 17.24 17.408C17.24 17.064 16.92 16.928 16.08 16.696C15.248 16.464 14.432 16.064 14.432 14.992C14.432 13.912 15.344 13.288 16.312 13.288C17.232 13.288 17.952 13.728 18.36 14.552L17.28 15.184C17.088 14.784 16.824 14.536 16.312 14.536C15.912 14.536 15.712 14.736 15.712 14.96C15.712 15.216 15.848 15.392 16.72 15.656C17.568 15.912 18.52 16.208 18.52 17.392C18.52 18.472 17.656 19.112 16.44 19.112Z"/>
</mask>
<path d="M16.44 19.112C15.264 19.112 14.512 18.552 14.2 17.728L15.304 17.088C15.504 17.552 15.848 17.864 16.48 17.864C17.088 17.864 17.24 17.624 17.24 17.408C17.24 17.064 16.92 16.928 16.08 16.696C15.248 16.464 14.432 16.064 14.432 14.992C14.432 13.912 15.344 13.288 16.312 13.288C17.232 13.288 17.952 13.728 18.36 14.552L17.28 15.184C17.088 14.784 16.824 14.536 16.312 14.536C15.912 14.536 15.712 14.736 15.712 14.96C15.712 15.216 15.848 15.392 16.72 15.656C17.568 15.912 18.52 16.208 18.52 17.392C18.52 18.472 17.656 19.112 16.44 19.112Z" fill="white"/>
<path d="M14.2 17.728L13.6985 16.8629L12.9643 17.2885L13.2648 18.0821L14.2 17.728ZM15.304 17.088L16.2223 16.6922L15.7766 15.6581L14.8025 16.2229L15.304 17.088ZM16.08 16.696L15.8114 17.6593L15.8138 17.6599L16.08 16.696ZM18.36 14.552L18.8651 15.4151L19.67 14.944L19.2562 14.1083L18.36 14.552ZM17.28 15.184L16.3785 15.6167L16.8482 16.5953L17.7851 16.0471L17.28 15.184ZM16.72 15.656L16.4302 16.6131L16.431 16.6133L16.72 15.656ZM16.44 18.112C15.633 18.112 15.2841 17.7672 15.1352 17.3739L13.2648 18.0821C13.7399 19.3368 14.895 20.112 16.44 20.112V18.112ZM14.7015 18.5931L15.8055 17.9531L14.8025 16.2229L13.6985 16.8629L14.7015 18.5931ZM14.3857 17.4838C14.5348 17.8299 14.7692 18.192 15.148 18.4632C15.535 18.7402 15.9915 18.864 16.48 18.864V16.864C16.4044 16.864 16.3606 16.8547 16.3396 16.8485C16.3202 16.8428 16.3136 16.838 16.312 16.8368C16.3108 16.836 16.2732 16.8101 16.2223 16.6922L14.3857 17.4838ZM16.48 18.864C16.891 18.864 17.3344 18.7869 17.6947 18.512C18.099 18.2034 18.24 17.7703 18.24 17.408H16.24C16.24 17.3453 16.2511 17.2573 16.2945 17.1606C16.34 17.0593 16.4081 16.978 16.4813 16.922C16.6136 16.8211 16.677 16.864 16.48 16.864V18.864ZM18.24 17.408C18.24 17.1545 18.1771 16.882 18.0092 16.6299C17.8516 16.3933 17.646 16.2419 17.4721 16.1423C17.1584 15.9626 16.7415 15.8412 16.3462 15.7321L15.8138 17.6599C16.019 17.7166 16.1729 17.7621 16.2915 17.8028C16.414 17.8447 16.4649 17.8702 16.4779 17.8777C16.489 17.8841 16.4159 17.8457 16.3446 17.7386C16.2629 17.616 16.24 17.4895 16.24 17.408H18.24ZM16.3486 15.7327C15.9707 15.6274 15.7315 15.5165 15.5934 15.3985C15.5339 15.3478 15.5003 15.3014 15.4788 15.2552C15.4573 15.2092 15.432 15.1297 15.432 14.992H13.432C13.432 15.827 13.7691 16.4707 14.2946 16.9195C14.7725 17.3275 15.3573 17.5326 15.8114 17.6593L16.3486 15.7327ZM15.432 14.992C15.432 14.7607 15.5188 14.6119 15.6494 14.503C15.7978 14.3793 16.0334 14.288 16.312 14.288V12.288C14.9696 12.288 13.432 13.1972 13.432 14.992H15.432ZM16.312 14.288C16.8577 14.288 17.2271 14.5176 17.4638 14.9957L19.2562 14.1083C18.6769 12.9384 17.6063 12.288 16.312 12.288V14.288ZM17.8549 13.6889L16.7749 14.3209L17.7851 16.0471L18.8651 15.4151L17.8549 13.6889ZM18.1815 14.7513C18.0467 14.4704 17.8425 14.1473 17.5042 13.9013C17.1501 13.6437 16.7401 13.536 16.312 13.536V15.536C16.3593 15.536 16.3746 15.5417 16.3687 15.5399C16.3605 15.5375 16.3442 15.5307 16.3278 15.5187C16.3129 15.5078 16.311 15.5023 16.3204 15.5148C16.3309 15.5289 16.351 15.5594 16.3785 15.6167L18.1815 14.7513ZM16.312 13.536C15.9533 13.536 15.5673 13.6256 15.247 13.8755C14.9128 14.1361 14.712 14.5289 14.712 14.96H16.712C16.712 15.1671 16.6112 15.3479 16.477 15.4525C16.3567 15.5464 16.2707 15.536 16.312 15.536V13.536ZM14.712 14.96C14.712 15.1133 14.7323 15.3298 14.8404 15.5619C14.9494 15.796 15.1123 15.9704 15.2828 16.1003C15.5816 16.3281 15.9886 16.4794 16.4302 16.6131L17.0098 14.6989C16.8111 14.6388 16.6764 14.5901 16.5863 14.5518C16.4926 14.5119 16.4762 14.4952 16.4952 14.5097C16.5227 14.5306 16.5971 14.5965 16.6534 14.7174C16.7087 14.8362 16.712 14.9347 16.712 14.96H14.712ZM16.431 16.6133C16.8898 16.7518 17.164 16.8475 17.344 16.9805C17.4155 17.0333 17.4495 17.0775 17.4697 17.1165C17.4895 17.1548 17.52 17.2342 17.52 17.392H19.52C19.52 16.4681 19.1195 15.8053 18.532 15.3715C18.024 14.9965 17.3982 14.8162 17.009 14.6987L16.431 16.6133ZM17.52 17.392C17.52 17.6383 17.4343 17.7776 17.3105 17.8768C17.1633 17.9948 16.8831 18.112 16.44 18.112V20.112C17.2129 20.112 17.9727 19.9092 18.5615 19.4372C19.1737 18.9464 19.52 18.2257 19.52 17.392H17.52Z" fill="black" mask="url(#path-37-outside-1_62_459)"/>
</g>
<defs>
<linearGradient id="paint0_linear_62_459" x1="2.54682e-07" y1="-2.54682e-07" x2="32" y2="32" gradientUnits="userSpaceOnUse">
<stop stop-color="#0039A6"/>
<stop offset="1" stop-color="#001640"/>
</linearGradient>
<clipPath id="clip0_62_459">
<rect width="32" height="32" fill="white"/>
</clipPath>
</defs>
</svg>
