<?xml version="1.0" standalone="no"?>
<!DOCTYPE svg PUBLIC "-//W3C//DTD SVG 20010904//EN"
 "http://www.w3.org/TR/2001/REC-SVG-20010904/DTD/svg10.dtd">
<svg version="1.0" xmlns="http://www.w3.org/2000/svg"
 width="700.000000pt" height="700.000000pt" viewBox="0 0 700.000000 700.000000"
 preserveAspectRatio="xMidYMid meet">
<metadata>
Created by potrace 1.14, written by Peter Selinger 2001-2017
</metadata>
<g transform="translate(0.000000,700.000000) scale(0.100000,-0.100000)"
fill="#000000" stroke="none">
<path d="M1620 5952 c-17 -2 -74 -50 -165 -139 -77 -75 -182 -177 -234 -227
-120 -117 -171 -180 -171 -214 0 -15 10 -43 21 -62 23 -38 321 -336 729 -730
508 -490 824 -804 870 -862 36 -47 61 -38 163 62 64 62 100 90 117 91 14 0 42
1 63 2 20 1 37 0 37 -3 0 -6 -213 -226 -496 -511 -120 -121 -204 -214 -204
-225 0 -11 47 -67 106 -126 l106 -107 -35 -48 c-51 -69 -52 -105 -8 -155 l29
-32 -27 -27 c-198 -202 -203 -210 -153 -264 15 -17 49 -57 77 -90 70 -85 71
-85 104 -89 35 -4 56 9 131 80 30 29 73 69 95 88 l39 35 32 -24 c49 -37 94
-34 145 12 l40 37 121 -122 c67 -67 129 -122 138 -122 10 0 26 12 35 27 10 14
171 179 358 365 313 312 341 338 357 323 9 -8 31 -15 48 -15 31 0 27 -5 -108
-139 -135 -134 -140 -141 -137 -175 4 -32 59 -90 543 -570 898 -889 1058
-1047 1092 -1077 58 -51 64 -47 344 236 139 140 260 270 269 287 19 36 16 70
-8 108 -18 29 -646 656 -952 950 -117 113 -246 237 -286 275 -278 269 -387
369 -407 370 -38 3 -55 -8 -138 -89 l-79 -78 -65 -2 c-36 -1 -63 1 -60 4 162
157 561 571 579 600 56 89 24 165 -143 338 -81 83 -113 123 -104 127 8 3 36
-8 62 -25 109 -70 240 -120 380 -147 66 -12 258 -4 312 13 9 2 25 7 36 9 83
16 272 117 272 145 0 15 -209 223 -531 530 l-89 85 162 157 161 158 44 -15
c76 -26 155 -13 207 33 48 43 70 148 45 223 -27 79 -102 138 -175 139 -40 0
-106 -23 -145 -51 -61 -43 -86 -141 -59 -229 l10 -35 -158 -157 -159 -156 -84
80 c-46 45 -177 171 -291 282 -115 111 -220 205 -234 211 -22 8 -29 6 -46 -15
-39 -48 -98 -189 -113 -267 -2 -15 -7 -39 -10 -53 -8 -34 -8 -197 -1 -240 22
-130 64 -243 133 -357 71 -118 46 -114 -85 14 -142 138 -186 166 -259 166 -41
0 -61 -6 -95 -29 -23 -16 -166 -151 -318 -301 -244 -240 -277 -270 -291 -257
-8 8 -30 14 -47 14 -31 0 -26 7 117 146 120 117 148 149 143 166 -5 20 -1638
1656 -1665 1668 -7 3 -23 4 -37 2z m1327 -3474 c-20 -31 -38 -29 -87 12 -56
47 -270 269 -270 280 0 4 9 19 21 34 l20 26 164 -167 c140 -144 161 -169 152
-185z"/>
</g>
</svg>
